<?xml version="1.0" encoding="utf-8"?>
<!-- Generator: Adobe Illustrator 24.2.3, SVG Export Plug-In . SVG Version: 6.00 Build 0)  -->
<svg version="1.1" id="Layer_1" xmlns="http://www.w3.org/2000/svg" xmlns:xlink="http://www.w3.org/1999/xlink" x="0px" y="0px"
	 viewBox="0 0 612.2 613.2" style="enable-background:new 0 0 612.2 613.2;" xml:space="preserve">
<style type="text/css">
	.st0{fill:#FFFFFF;}
</style>
<path class="st0" d="M530.8,17.9c0,0-448.5-0.1-448.4,0c-41.3,0-64.6,21.4-64.6,65V533c0,40.8,20.9,62.2,62.2,62.2h452
	c41.3,0,62.2-20.3,62.2-62.2V83C594.3,40.4,573.4,17.9,530.8,17.9z M309.6,539.6c-22.6,0.5-108.9-42-106.4-244.1
	C205.6,103.7,287,66.5,309.3,64l0.1,136.8c-19.5,0-24,23.3-26.5,47.2c-3.6,34.1-2.8,68.3,0,96c4.3,41.8,8,62.1,26.6,62.1v133.5
	H309.6z M372.4,524.9c0,7.9-6.2,14.9-14.8,14.9h-0.1h-37.7V406h37.8c8.1,0,14.8,6.5,14.8,14.8L372.4,524.9L372.4,524.9z
	 M372.4,185.9c0,7.9-6.2,14.9-14.8,14.9h-0.1h-37.7V64h37.8c8.1,0,14.8,6.5,14.8,14.8L372.4,185.9L372.4,185.9z"/>
</svg>
